<?xml version="1.0" encoding="UTF-8"?>
<svg preserveAspectRatio="xMidYMid meet" data-bbox="22.093 23.943 155.917 160" viewBox="22.093 23.943 155.917 160" height="200" width="200" xmlns="http://www.w3.org/2000/svg" data-type="color" role="presentation" aria-hidden="true" aria-label="">
    <g>
        <path d="M178.01 118.056a92 92 0 0 1-3.635 13.692c-4.825 13.768-14.387 30.274-33.353 41.385-37.979 22.249-86.536 9.055-108.473-29.495-21.932-38.542-7.998-88.351 29.06-110.06 18.503-10.839 36.338-10.841 49.572-8.128a78 78 0 0 1 11.492 3.296 41 41 0 0 0-1.376-.093c-8.198-.42-20.064 1.384-34.955 10.107-29.959 17.549-40.209 56.394-22.922 86.774 17.114 30.076 54.804 40.585 84.625 23.765l.013.022.898-.526c14.906-8.732 23.004-19.089 27.373-27.302a54 54 0 0 0 1.681-3.437" fill="#f8e8c7" data-color="1"/>
    </g>
</svg>
