<?xml version="1.0" encoding="UTF-8"?>
<svg xmlns="http://www.w3.org/2000/svg" width="200" height="200" viewBox="0 0 200 200" role="presentation" aria-hidden="true">
  <path d="M122.415 74.805c12.089-2.492 26.192-16.575 31.733-23.305h-32.986c.733-.778 1.475-1.563 2.235-2.362l.002-.002 1.139-1.197c3.333 2.415 8.59 1.386 12.094-2.496 3.314-3.672 3.924-8.64 1.661-11.765 2.432-2.409 4.023-3.825 5.133-4.54 2.061-1.328 5.9-3.294 6.923-4.719L145.706 20c-1.372 1.093-3.146 5.024-4.371 7.148-.552.958-2.117 2.842-4.265 5.254-3.318-2.63-8.732-1.65-12.315 2.321-3.488 3.865-3.987 9.17-1.286 12.246l-1.117 1.174a670 670 0 0 1-3.219 3.357H45.852c5.541 6.73 19.644 20.812 31.733 23.305 15.111 3.116 24.303 2.991 18.511 12.089.714 7.312 2.141 26.745 2.141 45.987s-1.427 22.096-2.141 29.2c-4.008-.476-16.11 7.437-33.503 13.793-.751.275-.701 1.293.085 1.439 4.988.921 17.384 2.688 39.084 2.688 21.384 0 31.861-1.716 35.974-2.648.741-.167.756-1.084.042-1.343-17.592-6.379-29.84-14.408-33.875-13.929-.714-7.104-2.141-9.958-2.141-29.2s1.427-38.675 2.141-45.987c-5.792-9.098 3.401-8.973 18.512-12.089" fill="#f8e8c7" data-color="1"></path>
</svg>
