<?xml version="1.0" encoding="UTF-8"?>
<svg xmlns="http://www.w3.org/2000/svg" viewBox="0 0 400 600" width="200" height="200" role="presentation" aria-hidden="true">
  <path d="M149.902 586.797c-1.466-.398-4.316-2.277-6.333-4.177-3.223-3.035-3.667-4.438-3.667-11.6 0-7.662.297-8.434 5-12.996 2.75-2.668 8.3-6.046 12.334-7.508 6.147-2.228 36.384-9.678 48-11.826 1.833-.34 7.654-2.648 12.936-5.13 11.126-5.23 15.033-9.943 19.099-23.034 2.346-7.556 2.619-12.179 2.518-42.667-.062-18.806-.568-53.693-1.125-77.526-.96-41.058-1.176-43.745-4.135-51.165-4.343-10.89-11.255-16.009-33.486-24.795-33.57-13.269-42.948-19.244-63.2-40.27-15.376-15.965-25.063-29.723-31.048-44.101-8.553-20.545-10.554-33.923-11.153-74.571l-.406-27.569 3.782-3.958 3.782-3.958 24.218-.821c13.32-.452 86.84-1.462 163.38-2.245l139.161-1.423 4.505 4.366 4.505 4.366v31.564c0 34.294-1.397 46.533-7.28 63.785-9.63 28.237-32.709 56.438-63.143 77.158-7.096 4.831-15.575 8.808-36.244 17-10.633 4.215-21.609 9.453-24.39 11.64-6.391 5.027-11.095 14.243-12.84 25.158-.75 4.678-2.06 40.006-2.912 78.506-1.669 75.34-1.443 79.637 4.834 92 4.914 9.678 20.745 17.46 41.975 20.633 3.3.493 14.7 2.996 25.333 5.563 17.499 4.223 19.808 5.125 24.334 9.505 4.606 4.459 5 5.427 5 12.308 0 6.692-.45 7.894-4.334 11.58l-4.333 4.112-101.333.842c-55.734.464-107.934 1.098-116 1.41s-15.867.241-17.334-.156z" fill="#b0893e" fill-opacity=".533" stroke="#000000" stroke-width="8"/>
</svg>
