<?xml version="1.0" encoding="UTF-8"?>
<svg xmlns="http://www.w3.org/2000/svg" viewBox="0 0 200 200" width="200" height="200" role="presentation" aria-hidden="true">
  <path d="M115.516 67.057c-.498-2.357-1.016-5.908-1.016-10.047v-.001c0-7.453 0-10.559 1.616-11.801 1.292-.994 4.484-2.692 3.945-3.416h-14.354c-.539.725 2.653 2.422 3.945 3.416 1.616 1.242 1.616 6.833 1.616 11.802 0 1.958-.132 4.396-.393 6.666-1.278-1.382-2.705-2.595-4.347-3.543-9.926-5.73-6.333-36.617-26.213-34.708-22.941 2.206-35.324-4.94-43.299-5.425 7.949 7.678 18.964 15.981 25.694 32.345 6.729 16.365 29.356 4.879 44.663 12.893.906.474 1.705 1.082 2.452 1.753-26.679 1.54-47.905 26.176-47.905 56.431 0 31.248 22.624 56.579 50.532 56.579s50.532-25.331 50.532-56.579c0-30.087-20.999-54.578-47.468-56.365" fill="#f8e8c7" data-color="1"/>
</svg>
