<?xml version="1.0" encoding="UTF-8"?>
<svg xmlns="http://www.w3.org/2000/svg" viewBox="0 0 200 200" width="200" height="200" role="presentation" aria-hidden="true">
  <path d="m139.895 113.311 38.025-.64-35.977-12.664 35.977-12.679-38.025-.625 30.396-23.469-36.363 11.46 21.847-31.957-31.123 22.433 11.161-37.337-22.857 31.211L112.334 20 100 56.942 87.666 20l-.623 39.044-22.857-31.211L75.348 65.17 44.224 42.738l21.847 31.957-36.363-11.46 30.396 23.469-38.024.625 35.977 12.679-35.977 12.663 38.025.64-30.397 23.469 36.363-11.46-21.847 31.957 31.124-22.432-11.161 37.337 22.857-31.226.622 39.044L100 143.075 112.334 180l.623-39.044 22.857 31.226-11.161-37.337 31.124 22.432-21.847-31.957 36.363 11.46z" fill="#f8e8c7" data-color="1"/>
</svg>
